<svg width="78" height="78" viewBox="0 0 78 78" fill="none" xmlns="http://www.w3.org/2000/svg">
  <g clip-path="url(#clip0_132_966)">
    <path d="M75.0317 18.4445L59.4373 9.94227C59.084 9.74677 58.6872 9.64317 58.2834 9.64099H48.6424C48.0032 9.64099 47.3901 9.89493 46.9381 10.3469C46.4861 10.799 46.2322 11.412 46.2322 12.0512C46.2322 13.969 45.4703 15.8081 44.1143 17.1642C42.7583 18.5202 40.9191 19.282 39.0014 19.282C37.0837 19.282 35.2445 18.5202 33.8885 17.1642C32.5324 15.8081 31.7706 13.969 31.7706 12.0512C31.7706 11.412 31.5167 10.799 31.0647 10.3469C30.6127 9.89493 29.9996 9.64099 29.3604 9.64099H19.7193C19.3145 9.64267 18.9166 9.74628 18.5624 9.94227L2.97107 18.4445C1.85964 19.0318 1.02649 20.0359 0.654299 21.2367C0.282109 22.4374 0.401257 23.7367 0.985618 24.8497L6.79132 35.9399C7.21346 36.7372 7.84623 37.4035 8.62074 37.8662C9.39525 38.3289 10.2818 38.5703 11.184 38.5641H17.3091V62.6666C17.3091 63.9451 17.817 65.1712 18.721 66.0752C19.625 66.9793 20.8511 67.4871 22.1296 67.4871H55.8732C57.1517 67.4871 58.3778 66.9793 59.2818 66.0752C60.1858 65.1712 60.6937 63.9451 60.6937 62.6666V38.5641H66.8218C67.7239 38.5703 68.6105 38.3289 69.385 37.8662C70.1596 37.4035 70.7923 36.7372 71.2145 35.9399L77.0202 24.8497C77.6043 23.7363 77.723 22.4367 77.3502 21.236C76.9775 20.0352 76.1437 19.0313 75.0317 18.4445ZM11.184 33.7436C11.1395 33.7457 11.0957 33.7318 11.0605 33.7044L5.28491 22.6745L17.3091 16.1125V33.7436H11.184ZM55.8732 62.6666H22.1296V14.4615H27.1911C27.7472 17.1826 29.2261 19.628 31.3775 21.3843C33.529 23.1406 36.2211 24.0998 38.9984 24.0998C41.7757 24.0998 44.4677 23.1406 46.6192 21.3843C48.7707 19.628 50.2495 17.1826 50.8056 14.4615H55.8732V62.6666ZM66.9453 33.7014C66.9286 33.7164 66.9091 33.7279 66.8879 33.7351C66.8666 33.7424 66.8441 33.7453 66.8218 33.7436H60.6937V16.1125L72.7209 22.6745L66.9453 33.7014Z" fill="#831B0E"/>
    <path d="M73 57.8116C73 65.4173 66.7544 71.6232 59 71.6232C51.2456 71.6232 45 65.4173 45 57.8116C45 50.2059 51.2456 44 59 44C66.7544 44 73 50.2059 73 57.8116Z" fill="white" stroke="#831B0E" stroke-width="4"/>
    <path fill-rule="evenodd" clip-rule="evenodd" d="M60.5984 49.9057C60.5984 49.4864 60.4299 49.0842 60.1298 48.7877C59.8298 48.4912 59.4228 48.3246 58.9984 48.3246C58.5741 48.3246 58.1671 48.4912 57.8671 48.7877C57.567 49.0842 57.3984 49.4864 57.3984 49.9057V56.2304H50.9984C50.5741 56.2304 50.1671 56.397 49.8671 56.6935C49.567 56.99 49.3984 57.3922 49.3984 57.8116C49.3984 58.2309 49.567 58.6331 49.8671 58.9296C50.1671 59.2261 50.5741 59.3927 50.9984 59.3927H57.3984V65.7174C57.3984 66.1367 57.567 66.5389 57.8671 66.8354C58.1671 67.1319 58.5741 67.2985 58.9984 67.2985C59.4228 67.2985 59.8298 67.1319 60.1298 66.8354C60.4299 66.5389 60.5984 66.1367 60.5984 65.7174V59.3927H66.9984C67.4228 59.3927 67.8298 59.2261 68.1298 58.9296C68.4299 58.6331 68.5984 58.2309 68.5984 57.8116C68.5984 57.3922 68.4299 56.99 68.1298 56.6935C67.8298 56.397 67.4228 56.2304 66.9984 56.2304H60.5984V49.9057Z" fill="#831B0E"/>
  </g>
  <defs>
    <clipPath id="clip0_132_966">
      <rect width="77.1282" height="77.1282" fill="white" transform="translate(0.4375)"/>
    </clipPath>
  </defs>
</svg>