<svg width="78" height="78" viewBox="0 0 78 78" fill="none" xmlns="http://www.w3.org/2000/svg">
<g id="ph:t-shirt">
<g id="Group 5497">
<g id="Vector">
<path d="M75.4373 18.653L59.6667 10.0547C59.3094 9.85697 58.9081 9.7522 58.4997 9.75H48.7497C48.1033 9.75 47.4833 10.0068 47.0262 10.4639C46.569 10.921 46.3122 11.541 46.3122 12.1875C46.3122 14.1269 45.5418 15.9869 44.1705 17.3582C42.7991 18.7296 40.9391 19.5 38.9997 19.5C37.0603 19.5 35.2004 18.7296 33.829 17.3582C32.4577 15.9869 31.6872 14.1269 31.6872 12.1875C31.6872 11.541 31.4304 10.921 30.9733 10.4639C30.5162 10.0068 29.8962 9.75 29.2497 9.75H19.4997C19.0903 9.75169 18.688 9.85648 18.3297 10.0547L2.56216 18.653C1.43817 19.247 0.595602 20.2624 0.219205 21.4767C-0.157192 22.691 -0.0366968 24.005 0.554269 25.1306L6.4256 36.3462C6.85251 37.1525 7.49242 37.8263 8.27569 38.2942C9.05896 38.7622 9.95557 39.0063 10.8679 39H17.0622V63.375C17.0622 64.6679 17.5759 65.9079 18.4901 66.8221C19.4043 67.7364 20.6443 68.25 21.9372 68.25H56.0622C57.3552 68.25 58.5951 67.7364 59.5094 66.8221C60.4236 65.9079 60.9372 64.6679 60.9372 63.375V39H67.1346C68.0469 39.0063 68.9436 38.7622 69.7268 38.2942C70.5101 37.8263 71.15 37.1525 71.5769 36.3462L77.4482 25.1306C78.039 24.0047 78.159 22.6904 77.782 21.476C77.4051 20.2617 76.5618 19.2464 75.4373 18.653ZM10.8679 34.125C10.8229 34.1271 10.7786 34.1131 10.743 34.0854L4.90216 22.9308L17.0622 16.2947V34.125H10.8679ZM56.0622 63.375H21.9372V14.625H27.056C27.6184 17.3768 29.1139 19.8499 31.2897 21.626C33.4655 23.4022 36.188 24.3723 38.9967 24.3723C41.8054 24.3723 44.5279 23.4022 46.7037 21.626C48.8795 19.8499 50.375 17.3768 50.9374 14.625H56.0622V63.375ZM67.2595 34.0823C67.2427 34.0975 67.2229 34.1092 67.2014 34.1165C67.1799 34.1238 67.1572 34.1267 67.1346 34.125H60.9372V16.2947L73.1004 22.9308L67.2595 34.0823Z" fill="#831B0E"/>
<path fill-rule="evenodd" clip-rule="evenodd" d="M67.031 56.0625C67.031 57.5029 66.7473 58.9293 66.196 60.2601C65.6448 61.5908 64.8369 62.8 63.8183 63.8186C62.7998 64.8371 61.5906 65.6451 60.2598 66.1963C58.929 66.7475 57.5027 67.0312 56.0622 67.0312C54.6218 67.0312 53.1955 66.7475 51.8647 66.1963C50.5339 65.6451 49.3247 64.8371 48.3062 63.8186C47.2876 62.8 46.4797 61.5908 45.9284 60.2601C45.3772 58.9293 45.0935 57.5029 45.0935 56.0625C45.0935 53.1534 46.2491 50.3635 48.3062 48.3064C50.3632 46.2494 53.1531 45.0938 56.0622 45.0938C58.9713 45.0938 61.7613 46.2494 63.8183 48.3064C65.8754 50.3635 67.031 53.1534 67.031 56.0625ZM65.0322 67.6162C62.0935 69.8977 58.3958 70.9734 54.6919 70.6245C50.9879 70.2755 47.5562 68.5281 45.0953 65.7379C42.6344 62.9477 41.3294 59.3246 41.4459 55.6061C41.5623 51.8876 43.0916 48.3532 45.7222 45.7225C48.3529 43.0918 51.8873 41.5626 55.6058 41.4461C59.3243 41.3296 62.9475 42.6347 65.7376 45.0956C68.5278 47.5565 70.2752 50.9882 70.6242 54.6921C70.9732 58.3961 69.8974 62.0938 67.616 65.0325L74.4166 71.8331C74.5962 72.0005 74.7403 72.2023 74.8402 72.4266C74.9401 72.6508 74.9939 72.8929 74.9982 73.1384C75.0025 73.3838 74.9574 73.6276 74.8654 73.8553C74.7735 74.0829 74.6366 74.2897 74.463 74.4633C74.2894 74.6369 74.0826 74.7737 73.855 74.8657C73.6274 74.9576 73.3836 75.0028 73.1381 74.9984C72.8926 74.9941 72.6505 74.9404 72.4263 74.8405C72.202 74.7405 72.0002 74.5965 71.8329 74.4169L65.0322 67.6162Z" fill="#831B0E"/>
</g>
<circle id="Ellipse 1" cx="56.0625" cy="56.0625" r="10.9688" fill="white"/>
</g>
</g>
</svg>
