<svg xmlns="http://www.w3.org/2000/svg" width="52" height="53" viewBox="0 0 52 53" fill="none">
  <path d="M37.237 27.1559C36.6216 32.28 33.2655 34.3275 31.816 35.8139C30.3643 37.3045 30.6243 37.6014 30.7218 39.7875C30.7381 40.058 30.6988 40.329 30.6064 40.5837C30.5139 40.8384 30.3703 41.0715 30.1844 41.2686C29.9984 41.4657 29.7741 41.6226 29.5252 41.7297C29.2763 41.8368 29.0081 41.8918 28.7371 41.8914H22.9781C22.7072 41.8915 22.439 41.8363 22.1902 41.7291C21.9413 41.6219 21.717 41.465 21.5309 41.268C21.3449 41.071 21.201 40.8381 21.1082 40.5835C21.0155 40.3289 20.9757 40.058 20.9913 39.7875C20.9913 37.6425 21.1906 37.1442 19.8993 35.8139C18.2526 34.1672 14.3786 31.8424 14.3786 25.4485C14.3688 23.8604 14.688 22.2874 15.3162 20.8287C15.9444 19.37 16.868 18.0573 18.0287 16.9733C19.1894 15.8893 20.5621 15.0575 22.0603 14.5303C23.5585 14.0031 25.1496 13.7921 26.7334 13.9104C28.3172 14.0287 29.8593 14.4738 31.2625 15.2176C32.6657 15.9615 33.8996 16.988 34.8864 18.2324C35.8733 19.4768 36.5916 20.9122 36.9961 22.448C37.4007 23.9838 37.4827 25.5868 37.237 27.1559Z" stroke="#831B0E" stroke-width="4" stroke-linecap="round" stroke-linejoin="round"/>
  <path d="M22.5208 41.7722V45.0482C22.5208 45.943 23.0192 46.6776 23.6323 46.6776H28.0805C28.698 46.6776 29.1942 45.9409 29.1942 45.0482V41.7722M24.1675 18.9356C22.8882 18.9361 21.6614 19.4447 20.757 20.3496C19.8526 21.2544 19.3445 22.4814 19.3445 23.7607M41.7435 25.8862H45.7172M37.7438 12.8602L40.5627 10.0414M39.9105 36.9276L42.7293 39.7442M25.8575 5.24438V8.45755M11.2108 10.0392L14.0102 12.8602M9.04417 39.7442L11.8435 36.9276M9.9715 25.8862H6" stroke="#831B0E" stroke-width="4" stroke-linecap="round" stroke-linejoin="round"/>
</svg>