<svg xmlns="http://www.w3.org/2000/svg" width="51" height="53" viewBox="0 0 51 53" fill="none">
  <path d="M7.37602 31.1853L7.37628 31.185L31.9419 6.13768L31.875 6.07204L31.942 6.13768C32.2293 5.8446 32.5704 5.61221 32.9457 5.4537C33.3209 5.29518 33.7231 5.21362 34.1292 5.21362C34.5353 5.21362 34.9374 5.29518 35.3127 5.4537C35.6879 5.61221 36.029 5.8446 36.3164 6.13768L36.3164 6.13769L45.2195 15.2133C45.5069 15.5063 45.7351 15.8543 45.8907 16.2374C46.0464 16.6205 46.1265 17.0312 46.1265 17.446C46.1265 17.8608 46.0464 18.2715 45.8907 18.6546C45.7351 19.0377 45.5069 19.3857 45.2195 19.6787L45.2864 19.7444L45.2195 19.6787L39.9501 25.0514L39.9136 25.0887L39.926 25.1394L41.3006 30.7476C41.3636 31.0046 41.3601 31.2738 41.2906 31.5291C41.2211 31.7843 41.088 32.0165 40.9045 32.2034L40.9044 32.2034L32.9357 40.3284C32.6541 40.6153 32.2726 40.776 31.8753 40.7758C31.4781 40.7756 31.0968 40.6146 30.8154 40.3274C30.534 40.0402 30.3757 39.6504 30.3758 39.2437C30.376 38.837 30.5347 38.4473 30.8163 38.1604L30.7494 38.0947L30.8164 38.1603L38.1476 30.6874L38.1842 30.6501L38.1717 30.5994L37.4784 27.7759L37.4383 27.6125L37.3205 27.7326L20.6518 44.7261L20.6516 44.7263C20.3653 45.0205 20.0247 45.2537 19.6495 45.4123C19.2743 45.571 18.872 45.652 18.4659 45.6506H18.4656H9.56252C8.7426 45.6506 7.95588 45.3186 7.37554 44.7268C6.79515 44.1351 6.46877 43.3321 6.46877 42.4944L6.46877 33.4167L6.46877 33.4164C6.46747 33.0016 6.54704 32.5908 6.70283 32.2077C6.85862 31.8247 7.08748 31.4772 7.37602 31.1853ZM9.62945 36.6011L9.46877 36.4372V36.6667V42.4944V42.5881H9.56252H15.2781H15.5014L15.345 42.4287L9.62945 36.6011ZM19.0581 41.8877L19.125 41.9559L19.1919 41.8877L36.0638 24.685L36.1282 24.6194L36.0638 24.5537L27.1607 15.4761L27.0938 15.4078L27.0268 15.4761L10.155 32.6787L10.0906 32.7444L10.155 32.81L19.0581 41.8877ZM38.1831 22.3877L38.25 22.4559L38.3169 22.3877L43.0982 17.5127L43.1626 17.447L43.0982 17.3814L34.1971 8.30374L34.1302 8.23549L34.0632 8.30374L29.282 13.1787L29.2176 13.2444L29.282 13.31L38.1831 22.3877Z" fill="#831B0E" stroke="#F8F8F8" stroke-width="0.1875"/>
</svg>