<svg xmlns="http://www.w3.org/2000/svg" width="51" height="53" viewBox="0 0 51 53" fill="none">
  <g clip-path="url(#clip0_48_260)">
    <path d="M49.1058 28.1609C48.7462 32.7685 47.0969 37.174 44.3539 40.854C41.6109 44.534 37.8895 47.3338 33.6318 48.9209C29.3742 50.5079 24.7592 50.8154 20.3351 49.8068C15.9111 48.7982 11.864 46.516 8.67462 43.2313C5.48526 39.9465 3.28771 35.7973 2.34305 31.2766C1.3984 26.756 1.74635 22.0538 3.34555 17.7288C4.94476 13.4038 7.72801 9.63776 11.3646 6.87812C15.0013 4.11848 19.3384 2.48123 23.8608 2.16089" stroke="#831B0E" stroke-width="4" stroke-linecap="round" stroke-linejoin="round"/>
    <path d="M35.6637 30.293C35.0058 32.0194 33.9363 33.5513 32.5518 34.7504C31.1674 35.9494 29.5116 36.7776 27.7343 37.1602C25.957 37.5427 24.1142 37.4676 22.3725 36.9415C20.6309 36.4154 19.0453 35.4549 17.7592 34.1469C16.4731 32.839 15.527 31.2248 15.0066 29.4504C14.4861 27.6759 14.4076 25.7972 14.7782 23.984C15.1489 22.1709 15.9569 20.4806 17.1293 19.0659C18.3017 17.6512 19.8015 16.5567 21.4929 15.8816M25.5001 26.2444L34.6072 16.9587M34.6072 16.9587L41.8929 18.8158L49.1787 11.3873L41.8929 9.53013L40.0715 2.10156L32.7858 9.53013L34.6072 16.9587Z" stroke="#831B0E" stroke-width="4" stroke-linecap="round" stroke-linejoin="round"/>
  </g>
  <defs>
    <clipPath id="clip0_48_260">
      <rect width="51" height="52" fill="white" transform="translate(0 0.244385)"/>
    </clipPath>
  </defs>
</svg>