<svg xmlns="http://www.w3.org/2000/svg" width="53" height="53" viewBox="0 0 53 53" fill="none">
  <path d="M13.6893 25.1992C15.3747 25.1992 16.9911 24.5297 18.1829 23.3379C19.3746 22.1461 20.0442 20.5297 20.0442 18.8443C20.0442 17.1589 19.3746 15.5425 18.1829 14.3508C16.9911 13.159 15.3747 12.4895 13.6893 12.4895C12.0039 12.4895 10.3875 13.159 9.19575 14.3508C8.00398 15.5425 7.33446 17.1589 7.33446 18.8443C7.33446 20.5297 8.00398 22.1461 9.19575 23.3379C10.3875 24.5297 12.0039 25.1992 13.6893 25.1992ZM16.1891 24.8794C15.3966 25.2077 14.5471 25.3766 13.6893 25.3766C11.9568 25.3766 10.2953 24.6884 9.07029 23.4634C7.84525 22.2383 7.15703 20.5768 7.15703 18.8443C7.15703 17.1119 7.84525 15.4504 9.07029 14.2253C10.2953 13.0003 11.9568 12.3121 13.6893 12.3121C14.5471 12.3121 15.3966 12.481 16.1891 12.8093C16.9816 13.1376 17.7017 13.6187 18.3083 14.2253C18.9149 14.8319 19.3961 15.552 19.7243 16.3445C20.0526 17.1371 20.2216 17.9865 20.2216 18.8443C20.2216 19.7022 20.0526 20.5516 19.7243 21.3441C19.3961 22.1367 18.9149 22.8568 18.3083 23.4634C17.7017 24.0699 16.9816 24.5511 16.1891 24.8794Z" fill="#831B0E" stroke="#831B0E" stroke-width="2.4"/>
  <path d="M9.88611 24.5786L9.88826 24.5808C9.89652 24.589 9.90308 24.5988 9.90755 24.6096L10.9983 24.157L9.90755 24.6096C9.91202 24.6204 9.91432 24.6319 9.91432 24.6436C9.91432 24.6553 9.91202 24.6668 9.90755 24.6776L11.0159 25.1375L9.90755 24.6776C9.90308 24.6884 9.89652 24.6982 9.88826 24.7064L9.01728 25.5748L9.0159 25.5762C7.11443 27.4782 6.04613 30.0574 6.04588 32.7469V32.747V37.5307C6.04588 37.5542 6.03654 37.5768 6.0199 37.5934L6.86843 38.442L6.0199 37.5934C6.00326 37.6101 5.9807 37.6194 5.95717 37.6194C5.93364 37.6194 5.91107 37.6101 5.89444 37.5934L5.05292 38.435L5.89444 37.5934C5.8778 37.5768 5.86846 37.5542 5.86846 37.5307V32.7472C5.86846 32.7471 5.86846 32.7471 5.86846 32.747C5.86882 30.0104 6.95598 27.386 8.8909 25.4508L8.89209 25.4496L9.7605 24.5786C9.76874 24.5704 9.77853 24.5638 9.78931 24.5593C9.80009 24.5549 9.81164 24.5526 9.82331 24.5526C9.83498 24.5526 9.84653 24.5549 9.85731 24.5593C9.86809 24.5638 9.87788 24.5704 9.88611 24.5786ZM41.9762 23.8076L41.9783 23.8054C41.9866 23.7972 41.9963 23.7906 42.0071 23.7861C42.0179 23.7816 42.0295 23.7793 42.0411 23.7793C42.0528 23.7793 42.0643 23.7816 42.0751 23.7861C42.0858 23.7906 42.0956 23.797 42.1038 23.8052C42.1038 23.8052 42.1038 23.8052 42.1038 23.8053C42.1038 23.8053 42.1039 23.8054 42.1039 23.8054L42.9723 24.6764L42.9735 24.6776C44.9085 26.6128 45.9956 29.2372 45.996 31.9738C45.996 31.9738 45.996 31.9739 45.996 31.9739V37.5307C45.996 37.5543 45.9866 37.5768 45.97 37.5934C45.9534 37.6101 45.9308 37.6194 45.9073 37.6194C45.8837 37.6194 45.8612 37.6101 45.8445 37.5934C45.8279 37.5768 45.8186 37.5543 45.8186 37.5307V31.9738C45.8186 30.6421 45.5563 29.3233 45.0467 28.0929C44.5371 26.8625 43.7901 25.7446 42.8484 24.8028L42.8472 24.8016L41.9762 23.9332L41.976 23.933C41.9678 23.9248 41.9613 23.9151 41.9569 23.9044C41.9524 23.8936 41.9501 23.882 41.9501 23.8704C41.9501 23.8587 41.9524 23.8471 41.9569 23.8364C41.9614 23.8256 41.9679 23.8158 41.9762 23.8076Z" fill="#831B0E" stroke="#831B0E" stroke-width="2.4"/>
  <path d="M34.3867 12.8093L33.9331 11.7141L34.3867 12.8093C35.1792 12.481 36.0287 12.3121 36.8865 12.3121C38.619 12.3121 40.2805 13.0003 41.5055 14.2253C42.7305 15.4504 43.4188 17.1119 43.4188 18.8443C43.4188 20.5768 42.7305 22.2383 41.5055 23.4634C40.2805 24.6884 38.619 25.3766 36.8865 25.3766C36.0287 25.3766 35.1792 25.2077 34.3867 24.8794C33.5942 24.5511 32.8741 24.0699 32.2675 23.4634C31.6609 22.8568 31.1797 22.1367 30.8515 21.3441C30.5232 20.5516 30.3542 19.7022 30.3542 18.8443C30.3542 17.9865 30.5232 17.1371 30.8515 16.3445C31.1797 15.552 31.6609 14.8319 32.2675 14.2253C32.8741 13.6187 33.5942 13.1376 34.3867 12.8093ZM32.3929 23.3379C33.5847 24.5297 35.2011 25.1992 36.8865 25.1992C38.5719 25.1992 40.1883 24.5297 41.38 23.3379C42.5718 22.1461 43.2413 20.5297 43.2413 18.8443C43.2413 17.1589 42.5718 15.5425 41.38 14.3508C40.1883 13.159 38.5719 12.4895 36.8865 12.4895C35.2011 12.4895 33.5847 13.159 32.3929 14.3508C31.2012 15.5425 30.5316 17.1589 30.5316 18.8443C30.5316 20.5297 31.2012 22.1461 32.3929 23.3379ZM25.2881 33.7532C23.2609 33.7532 21.3167 34.5585 19.8833 35.992C18.4498 37.4254 17.6445 39.3696 17.6445 41.3968V44.7475C17.6445 44.771 17.6352 44.7936 17.6185 44.8102C17.6019 44.8268 17.5793 44.8362 17.5558 44.8362C17.5323 44.8362 17.5097 44.8268 17.4931 44.8102C17.4764 44.7936 17.4671 44.771 17.4671 44.7475V41.3968C17.4671 39.3226 18.2911 37.3333 19.7578 35.8665C21.2245 34.3998 23.2138 33.5758 25.2881 33.5758C27.3623 33.5758 29.3516 34.3998 30.8184 35.8665C32.2851 37.3333 33.1091 39.3226 33.1091 41.3968V44.7475C33.1091 44.771 33.0997 44.7936 33.0831 44.8102C33.0664 44.8268 33.0439 44.8362 33.0204 44.8362C32.9968 44.8362 32.9743 44.8268 32.9576 44.8102C32.941 44.7936 32.9316 44.771 32.9316 44.7475V41.3968C32.9316 40.393 32.7339 39.3991 32.3498 38.4717C31.9657 37.5444 31.4027 36.7018 30.6929 35.992C29.9831 35.2822 29.1405 34.7192 28.2131 34.3351C27.2858 33.951 26.2918 33.7532 25.2881 33.7532Z" fill="#831B0E" stroke="#831B0E" stroke-width="2.4"/>
  <path d="M25.2879 32.2871C26.9734 32.2871 28.5897 31.6175 29.7815 30.4258C30.9733 29.234 31.6428 27.6176 31.6428 25.9322C31.6428 24.2468 30.9733 22.6304 29.7815 21.4387C28.5897 20.2469 26.9734 19.5774 25.2879 19.5774C23.6025 19.5774 21.9861 20.2469 20.7944 21.4387C19.6026 22.6304 18.9331 24.2468 18.9331 25.9322C18.9331 27.6176 19.6026 29.234 20.7944 30.4258C21.9861 31.6175 23.6025 32.2871 25.2879 32.2871ZM29.907 30.5512C28.6819 31.7763 27.0204 32.4645 25.2879 32.4645C23.5555 32.4645 21.894 31.7763 20.6689 30.5512C19.4439 29.3262 18.7557 27.6647 18.7557 25.9322C18.7557 24.1998 19.4439 22.5382 20.6689 21.3132C21.894 20.0882 23.5555 19.4 25.2879 19.4C27.0204 19.4 28.6819 20.0882 29.907 21.3132C31.132 22.5382 31.8202 24.1998 31.8202 25.9322C31.8202 27.6647 31.132 29.3262 29.907 30.5512Z" fill="#831B0E" stroke="#831B0E" stroke-width="2.4"/>
</svg>