<svg width="79" height="141" viewBox="0 0 79 141" fill="none" xmlns="http://www.w3.org/2000/svg">
<path d="M67.7871 128.424L61.1589 75.3987C61.0312 74.3788 60.5355 73.4407 59.7649 72.7606C58.9943 72.0804 58.0019 71.7051 56.9741 71.705H22.0254C20.9976 71.7051 20.0052 72.0804 19.2346 72.7606C18.4641 73.4407 17.9683 74.3788 17.8406 75.3987L11.2124 128.424C11.1381 129.018 11.1908 129.62 11.3671 130.192C11.5434 130.763 11.8393 131.291 12.235 131.739C12.6308 132.188 13.1174 132.547 13.6626 132.793C14.2078 133.039 14.7991 133.166 15.3972 133.166H27.6564C28.5946 133.166 29.5061 132.854 30.2465 132.277C30.987 131.701 31.5142 130.894 31.7448 129.985L39.4998 100.025L47.2518 129.985C47.4824 130.895 48.0101 131.702 48.7512 132.278C49.4922 132.855 50.4044 133.167 51.3432 133.166H63.6023C64.2005 133.166 64.7917 133.039 65.3369 132.793C65.8821 132.547 66.3687 132.188 66.7645 131.739C67.1603 131.291 67.4561 130.763 67.6324 130.192C67.8087 129.62 67.8615 129.018 67.7871 128.424ZM59.7519 93.2948C57.6193 92.9884 55.6372 92.0186 54.0863 90.5229C52.5355 89.0273 51.4946 87.0815 51.1112 84.9614H58.7125L59.7519 93.2948ZM22.0254 75.3203H56.9741C57.1217 75.3192 57.2646 75.3722 57.3756 75.4694C57.4867 75.5666 57.5582 75.7012 57.5767 75.8476L58.2606 81.346H20.7389L21.4228 75.8476C21.4413 75.7012 21.5128 75.5666 21.6239 75.4694C21.735 75.3722 21.8778 75.3192 22.0254 75.3203ZM20.287 84.9614H27.8884C27.5049 87.0815 26.464 89.0273 24.9132 90.5229C23.3624 92.0186 21.3802 92.9884 19.2476 93.2948L20.287 84.9614ZM28.2409 129.096C28.208 129.226 28.1326 129.342 28.0268 129.424C27.9209 129.506 27.7905 129.551 27.6564 129.551H15.3972C15.3113 129.552 15.2263 129.534 15.1478 129.499C15.0693 129.464 14.9992 129.413 14.9421 129.349C14.885 129.285 14.8424 129.209 14.8169 129.127C14.7915 129.045 14.7839 128.958 14.7946 128.873L18.7866 96.9735C21.9703 96.7437 24.9775 95.4236 27.3016 93.2356C29.6257 91.0476 31.1246 88.1254 31.5459 84.9614H37.6921V92.5657L28.2409 129.096ZM64.0543 129.346C63.9978 129.411 63.9283 129.462 63.8504 129.497C63.7724 129.533 63.6879 129.551 63.6023 129.551H51.3432C51.2064 129.551 51.0738 129.504 50.967 129.419C50.8603 129.334 50.7857 129.214 50.7557 129.081L41.3075 92.5657V84.9614H47.4536C47.8749 88.1254 49.3738 91.0476 51.6979 93.2356C54.022 95.4236 57.0292 96.7437 60.2129 96.9735L64.2049 128.873C64.2148 128.958 64.2065 129.044 64.1805 129.126C64.1546 129.208 64.1115 129.283 64.0543 129.346Z" fill="#831B0E"/>
<g clip-path="url(#clip0_132_960)">
<path d="M75.5297 18.4445L59.9354 9.94227C59.5821 9.74677 59.1853 9.64317 58.7815 9.64099H49.1405C48.5012 9.64099 47.8882 9.89493 47.4361 10.3469C46.9841 10.799 46.7302 11.412 46.7302 12.0512C46.7302 13.969 45.9684 15.8081 44.6124 17.1642C43.2563 18.5202 41.4172 19.282 39.4994 19.282C37.5817 19.282 35.7425 18.5202 34.3865 17.1642C33.0305 15.8081 32.2687 13.969 32.2687 12.0512C32.2687 11.412 32.0147 10.799 31.5627 10.3469C31.1107 9.89493 30.4976 9.64099 29.8584 9.64099H20.2174C19.8126 9.64267 19.4147 9.74628 19.0605 9.94227L3.46911 18.4445C2.35769 19.0318 1.52454 20.0359 1.15235 21.2367C0.780156 22.4374 0.899304 23.7367 1.48366 24.8497L7.28937 35.9399C7.71151 36.7372 8.34427 37.4035 9.11879 37.8662C9.8933 38.3289 10.7799 38.5703 11.6821 38.5641H17.8071V62.6666C17.8071 63.9451 18.315 65.1712 19.219 66.0752C20.123 66.9793 21.3492 67.4871 22.6276 67.4871H56.3712C57.6497 67.4871 58.8758 66.9793 59.7798 66.0752C60.6839 65.1712 61.1917 63.9451 61.1917 62.6666V38.5641H67.3198C68.222 38.5703 69.1086 38.3289 69.8831 37.8662C70.6576 37.4035 71.2904 36.7372 71.7125 35.9399L77.5182 24.8497C78.1023 23.7363 78.221 22.4367 77.8483 21.236C77.4755 20.0352 76.6417 19.0313 75.5297 18.4445ZM11.6821 33.7436C11.6375 33.7457 11.5937 33.7318 11.5585 33.7044L5.78296 22.6745L17.8071 16.1125V33.7436H11.6821ZM56.3712 62.6666H22.6276V14.4615H27.6892C28.2453 17.1826 29.7241 19.628 31.8756 21.3843C34.0271 23.1406 36.7191 24.0998 39.4964 24.0998C42.2737 24.0998 44.9658 23.1406 47.1172 21.3843C49.2687 19.628 50.7476 17.1826 51.3037 14.4615H56.3712V62.6666ZM67.4433 33.7014C67.4267 33.7164 67.4071 33.7279 67.3859 33.7351C67.3647 33.7424 67.3422 33.7453 67.3198 33.7436H61.1917V16.1125L73.2189 22.6745L67.4433 33.7014Z" fill="#831B0E"/>
</g>
<defs>
<clipPath id="clip0_132_960">
<rect width="77.1282" height="77.1282" fill="white" transform="translate(0.935547)"/>
</clipPath>
</defs>
</svg>
