<svg width="94" height="137" viewBox="0 0 94 137" fill="none" xmlns="http://www.w3.org/2000/svg">
  <path d="M59.5 93.5H34C34 68 47.6 59.5 56.95 54.4C60.35 52.7 62.9 51 64.6 49.3C68.85 45.05 67.15 39.1 66.3 37.4C63.75 31.45 57.8 25.5 46.75 25.5C28.9 25.5 25.5 41.65 25.5 45.05L0 41.65C1.7 27.2 14.45 0 46.75 0C66.3 0 83.3 11.05 90.1 27.2C96.05 41.65 93.5 56.95 83.3 67.15C79.05 71.4 73.95 73.95 69.7 76.5C62.05 80.75 59.5 85 59.5 93.5ZM63.75 119C63.8012 121.264 63.3996 123.515 62.5688 125.622C61.7379 127.728 60.4946 129.648 58.9118 131.267C57.329 132.886 55.4386 134.173 53.3516 135.052C51.2646 135.931 49.0231 136.384 46.7586 136.384C44.4941 136.385 42.2524 135.933 40.165 135.055C38.0775 134.178 36.1865 132.892 34.6029 131.273C33.0192 129.654 31.775 127.736 30.9431 125.63C30.1112 123.523 29.7084 121.272 29.7585 119.008C29.8567 114.567 31.6899 110.34 34.8656 107.233C38.0414 104.126 42.3072 102.385 46.7501 102.384C51.193 102.383 55.4597 104.121 58.637 107.227C61.8143 110.332 63.6496 114.558 63.75 119Z" fill="#D92A1C" fill-opacity="0.5"/>
</svg>