<svg xmlns="http://www.w3.org/2000/svg" width="80" height="80" viewBox="0 0 80 80" fill="none">
  <path d="M76.2499 40V60C76.2499 60.9946 75.8548 61.9484 75.1515 62.6517C74.4483 63.3549 73.4944 63.75 72.4999 63.75H52.4999C51.5053 63.75 50.5515 63.3549 49.8482 62.6517C49.145 61.9484 48.7499 60.9946 48.7499 60C48.7499 59.0055 49.145 58.0516 49.8482 57.3484C50.5515 56.6451 51.5053 56.25 52.4999 56.25H63.4374L42.4999 35.3125L32.653 45.1625C32.3046 45.5121 31.8906 45.7895 31.4348 45.9788C30.979 46.168 30.4903 46.2655 29.9967 46.2655C29.5032 46.2655 29.0145 46.168 28.5587 45.9788C28.1029 45.7895 27.6889 45.5121 27.3405 45.1625L4.84049 22.6625C4.13601 21.958 3.74023 21.0025 3.74023 20.0063C3.74023 19.5129 3.8374 19.0245 4.02618 18.5687C4.21496 18.1129 4.49167 17.6988 4.84049 17.35C5.18931 17.0012 5.60343 16.7245 6.05919 16.5357C6.51495 16.3469 7.00343 16.2498 7.49674 16.2498C8.49303 16.2498 9.44851 16.6455 10.153 17.35L29.9999 37.1875L39.8467 27.3375C40.1951 26.9879 40.6091 26.7105 41.0649 26.5213C41.5207 26.332 42.0094 26.2346 42.503 26.2346C42.9965 26.2346 43.4852 26.332 43.9411 26.5213C44.3969 26.7105 44.8109 26.9879 45.1592 27.3375L68.7499 50.9375V40C68.7499 39.0054 69.145 38.0516 69.8482 37.3484C70.5515 36.6451 71.5053 36.25 72.4999 36.25C73.4944 36.25 74.4483 36.6451 75.1515 37.3484C75.8548 38.0516 76.2499 39.0054 76.2499 40Z" fill="#831B0E"/>
</svg>